<svg width="117" height="20" viewBox="0 0 117 20" fill="none" xmlns="http://www.w3.org/2000/svg">
<path d="M8.39258 7.71106C8.54228 7.71115 8.55209 7.76371 8.55762 8.56848C8.56079 9.04036 8.59393 10.5567 8.63184 11.9386C8.70687 14.6597 8.78646 15.3164 9.1582 15.923C9.43252 16.371 9.54622 16.4907 10.0195 16.8204C10.8282 17.3838 11.6818 17.7079 12.7441 17.798H14V20.0001H13C12.5003 20.0001 12.1554 20.0096 11.833 19.9913L11.29 19.9601C9.63216 19.7734 8.18133 19.0323 7.09766 17.6564C6.29059 16.6315 6.02308 15.8547 5.96777 14.3673C5.91645 12.9852 6.02008 12.1538 6.38965 10.9679C6.8873 9.37025 7.90761 7.71106 8.39258 7.71106ZM80.6885 5.52844C83.1845 5.52844 84.6667 6.64043 85.1152 8.88293H82.2871C81.9751 8.18094 81.4293 7.81067 80.6104 7.81067C79.2455 7.81077 78.5635 8.84432 78.5635 10.8917C78.5636 12.9389 79.2847 13.9718 80.7275 13.9523C81.3319 13.9523 81.8582 13.6993 82.2871 13.212C82.5406 12.9585 82.8335 12.8409 83.165 12.8409H85.1152C84.6472 14.9469 83.126 16.293 80.7275 16.2345C77.6077 16.2345 76.0088 14.4404 75.9307 10.8917C75.9307 7.36225 77.51 5.58697 80.6885 5.52844ZM101.188 5.52844C103.684 5.52844 105.167 6.64043 105.615 8.88293H102.788C102.476 8.18093 101.929 7.81067 101.11 7.81067C99.7457 7.8109 99.0635 8.84445 99.0635 10.8917C99.0636 12.9388 99.7848 13.9716 101.228 13.9523C101.832 13.9523 102.359 13.6995 102.788 13.212C103.042 12.9586 103.334 12.841 103.665 12.8409H105.615C105.147 14.9469 103.626 16.293 101.228 16.2345C98.1079 16.2344 96.5088 14.4403 96.4307 10.8917C96.4307 7.36235 98.0102 5.58706 101.188 5.52844ZM111.741 5.52844C115.017 5.52852 116.557 7.53719 116.362 11.5734H109.693C109.791 13.1529 110.474 13.9523 111.741 13.9523C112.346 13.9522 112.911 13.6994 113.418 13.212C113.652 12.9585 113.945 12.8409 114.296 12.8409H116.206C115.641 15.0249 114.237 16.2345 111.702 16.2345C108.582 16.137 107.023 14.3234 107.022 10.8136C107.022 7.3036 108.602 5.54794 111.741 5.52844ZM15.9062 5.52844C18.753 5.52853 20.1954 6.46519 20.2539 8.3761V11.8859C20.2539 14.7327 18.5384 16.0004 15.75 16.1954C13.2735 16.3904 11.5576 15.2396 11.5576 12.9581C11.6162 10.4819 13.4097 9.81908 16.0225 9.56555C17.134 9.42905 17.7002 9.09687 17.7002 8.53137C17.6415 7.94659 17.0948 7.65442 16.0225 7.65442C15.1062 7.65448 14.5994 7.88867 14.4629 8.3761H11.8691C12.1811 6.4651 13.5273 5.52844 15.9062 5.52844ZM42.0049 5.52844C44.8518 5.52848 46.295 6.46514 46.3535 8.3761V11.8859C46.3535 14.7328 44.6371 16.0004 41.8486 16.1954C39.3722 16.3904 37.6562 15.2396 37.6562 12.9581C37.7148 10.4817 39.5091 9.81905 42.1221 9.56555C43.2334 9.42903 43.7988 9.09682 43.7988 8.53137C43.7401 7.94667 43.1941 7.65448 42.1221 7.65442C41.2056 7.65442 40.698 7.8886 40.5615 8.3761H37.9678C38.2798 6.4651 39.6259 5.52844 42.0049 5.52844ZM70.2939 5.52844C73.1407 5.52853 74.5831 6.46519 74.6416 8.3761V11.8859C74.6416 14.7327 72.9261 16.0004 70.1377 16.1954C67.6612 16.3904 65.9453 15.2396 65.9453 12.9581C66.0039 10.4819 67.7974 9.81908 70.4102 9.56555C71.5217 9.42905 72.0879 9.09687 72.0879 8.53137C72.0292 7.94659 71.4825 7.65442 70.4102 7.65442C69.4939 7.65449 68.9871 7.88867 68.8506 8.3761H66.2568C66.5688 6.4651 67.9149 5.52844 70.2939 5.52844ZM32.1143 12.9191L33.9082 6.60168C34.1032 5.99718 34.5323 5.68469 35.1758 5.68469H37.1846L33.5381 16.0001H30.7881L27.1611 5.68469H30.0273L32.1143 12.9191ZM53.5889 2.74036C56.3969 2.74036 57.8594 4.24186 57.8594 7.01086C57.8593 9.62379 56.4361 11.2814 53.7842 11.2814H50.4307V16.0001H47.7197V4.16418C47.7197 3.40369 48.3245 2.74036 49.085 2.74036H53.5889ZM64.8613 8.3761H63.9844C62.5414 8.3761 61.8193 9.13632 61.8193 10.6378V16.0001H59.1865V10.6769C59.2645 7.34238 61.0397 5.68469 64.4912 5.68469H64.8613V8.3761ZM93.6807 5.68469C94.5191 5.68473 94.9287 6.09428 94.9287 6.93274V16.0001H92.335V5.68469H93.6807ZM23.3477 2.74036C24.03 2.74063 24.5947 3.36465 24.5947 4.047V5.68469H26.1553V6.25012C26.1553 6.99112 25.5897 7.53723 24.8682 7.53723H24.5947V13.2511C24.5949 13.6798 24.8488 13.9141 25.3555 13.9142H26.1553V15.8829C25.3168 15.9609 24.3998 15.9609 23.4248 15.8634C22.4501 15.7658 21.9825 15.1612 22.002 14.0109V2.74036H23.3477ZM87.9453 2.74036C88.6278 2.74038 89.1934 3.36451 89.1934 4.047V5.68469H90.7529V6.25012C90.7529 6.99112 90.1873 7.53723 89.4658 7.53723H89.1934V13.2511C89.1935 13.6799 89.4472 13.9142 89.9541 13.9142H90.7529V15.8829C89.9146 15.9609 88.9983 15.9609 88.0234 15.8634C87.0484 15.7659 86.5801 15.1614 86.5996 14.0109V2.74036H87.9453ZM17.7393 10.8136C17.1348 11.0671 16.4324 11.2816 15.6719 11.4376C14.6385 11.6326 14.1124 12.1197 14.1123 12.88C14.1708 13.6989 14.5992 14.0889 15.418 14.089C16.861 14.089 17.7393 13.2312 17.7393 11.7687V10.8136ZM43.8379 10.8136C43.2334 11.0671 42.531 11.2816 41.7705 11.4376C40.7373 11.6326 40.211 12.1197 40.2109 12.88C40.2694 13.699 40.6986 14.089 41.5176 14.089C42.9604 14.0888 43.8379 13.2311 43.8379 11.7687V10.8136ZM72.127 10.8136C71.5225 11.0671 70.8201 11.2816 70.0596 11.4376C69.0262 11.6326 68.5001 12.1197 68.5 12.88C68.5585 13.6989 68.9869 14.0889 69.8057 14.089C71.2487 14.089 72.127 13.2312 72.127 11.7687V10.8136ZM7.75195 0.00012207C8.20072 0.000863638 8.44865 0.172721 8.51953 0.618286C8.57804 0.987138 8.56589 1.36868 8.57812 1.74426C8.58535 1.96656 8.58009 2.19896 8.58008 2.46692C8.67365 2.41557 8.74171 2.37254 8.80371 2.33411C9.48881 1.93524 10.1986 1.64349 10.9795 1.52942C11.6257 1.43512 12.017 1.77911 12.0205 2.43176C12.0221 2.72769 12.0207 3.02418 12.0205 3.3468C12.0198 3.60636 12.019 3.83948 12.0176 4.07239C12.0175 4.08949 12.0195 4.13639 12.0195 4.15637C12.0195 4.16399 11.9812 4.1567 11.9668 4.15637C10.9389 4.13731 10.0644 4.56232 9.25781 5.13684C7.84461 6.1436 6.64072 7.34626 5.90234 8.94836C5.73452 9.31261 5.61365 9.69881 5.4834 10.0431C4.1893 8.12807 2.33482 7.31586 0.0117188 7.38293C0.0117112 6.8325 -0.0198129 6.25799 0.0214844 5.68958C0.0523498 5.26891 0.613325 4.78883 1.08789 4.7511C2.41072 4.64657 3.65891 4.89658 4.76367 5.66321C5.10281 5.90726 5.43372 6.16394 5.83105 6.44739C5.83106 4.27023 5.8418 2.14644 5.8418 0.00109863C6.20669 0.00109868 6.53516 0.00122418 6.86328 0.00109863C7.15923 0.000983945 7.456 -0.000269738 7.75195 0.00012207ZM111.702 7.65442C110.591 7.65442 109.927 8.35609 109.732 9.72083H113.613C113.457 8.35613 112.813 7.65447 111.702 7.65442ZM50.4688 8.88293H53.1016C54.4665 8.90243 55.1494 8.25876 55.1494 6.9718C55.1494 5.68482 54.5057 5.04115 53.2383 5.04114H50.4688V8.88293ZM93.6807 2.74036C94.5386 2.74039 94.9482 3.16947 94.9287 4.00793V4.76868H92.335V2.74036H93.6807Z" fill="url(#paint0_linear_2462_7921)"/>
<defs>
<linearGradient id="paint0_linear_2462_7921" x1="0" y1="10.0014" x2="116.379" y2="10.0014" gradientUnits="userSpaceOnUse">
<stop stop-color="#5347D8"/>
<stop offset="1" stop-color="#9D2AF7"/>
</linearGradient>
</defs>
</svg>
