<svg width="600" height="105" viewBox="0 0 600 105" fill="none" xmlns="http://www.w3.org/2000/svg">
<path d="M63.0757 17.559C63.0719 18.9228 63.0695 20.1466 63.0618 21.3703C63.0613 21.4609 63.0708 21.7081 63.0708 21.8112C63.0708 21.8513 62.87 21.8126 62.7952 21.8112C57.4005 21.7108 52.814 23.9373 48.5809 26.9528C41.1639 32.2363 34.8477 38.5451 30.9727 46.9535C30.0914 48.8661 29.4587 50.8933 28.7748 52.701C21.9835 42.6497 12.2512 38.3853 0.0587351 38.7379C0.0587351 35.8492 -0.10415 32.8385 0.112583 29.8554C0.273036 27.647 3.21753 25.125 5.70891 24.928C12.6516 24.3793 19.2003 25.6921 24.9983 29.7161C26.7784 30.9971 28.5134 32.343 30.5991 33.8308C30.5991 22.4057 30.654 11.262 30.654 0.00383103C32.5696 0.00383103 34.2922 0.00433984 36.0147 0.00368015C37.568 0.00308092 39.1214 -0.00153193 40.6747 0.000524542C43.0326 0.0036498 44.3348 0.903705 44.7062 3.24518C45.0133 5.18105 44.9483 7.17825 45.0126 9.14945C45.0506 10.3174 45.0224 11.5375 45.0224 12.9458C45.5151 12.6755 45.87 12.4467 46.1961 12.2445C49.7915 10.1511 53.5152 8.62491 57.6133 8.02625C61.0055 7.53072 63.0589 9.3331 63.0772 12.759C63.0855 14.3122 63.0768 15.8656 63.0757 17.559Z" fill="#000"/>
<path d="M37.2429 92.6555C42.9297 99.8759 50.5424 103.765 59.2425 104.745L62.0911 104.906C63.7837 105.002 65.4814 104.945 67.1638 104.736L69.3596 104.464V93.3991H66.8707C61.2959 92.9265 56.8186 91.223 52.575 88.2663C50.0913 86.5361 49.4923 85.9111 48.0528 83.5599C46.1016 80.3767 45.6861 76.9297 45.2923 62.648C45.0933 55.3941 44.9193 47.437 44.9027 44.9633C44.8737 40.7357 44.8239 40.4636 44.0364 40.4636C41.4914 40.4636 36.1362 49.1699 33.5249 57.5539C31.5851 63.7781 31.0463 68.1397 31.3157 75.3935C31.6058 83.1999 33.0068 87.2768 37.2429 92.6555Z" fill="#000"/>
<path d="M78.5101 71.9666C85.9636 71.9666 90.4961 67.5347 90.4961 59.9805V55.0451C87.3737 56.3545 83.7477 57.4624 79.8195 58.2682C74.4812 59.2755 71.7617 61.7935 71.7617 65.7217C72.0638 69.9521 74.2798 71.9666 78.5101 71.9666ZM81.6325 38.728C76.8985 38.728 74.2798 39.9367 73.5747 42.4547H60.1785C61.7901 32.5839 68.74 27.7492 81.0282 27.7492C95.7337 27.7492 103.187 32.5839 103.489 42.4547V60.5849C103.489 75.2904 94.6258 81.8374 80.2224 82.8446C67.4306 83.8519 58.567 77.9092 58.567 66.1246C58.8691 53.3328 68.1357 49.9082 81.6325 48.5988C87.3737 47.8938 90.2947 46.1815 90.2947 43.2605C89.9925 40.2388 87.1723 38.728 81.6325 38.728Z" fill="#000"/>
<path d="M133.969 31.4759C133.969 35.3034 131.048 38.1236 127.321 38.1236H125.911V67.6355C125.911 69.8514 127.221 71.06 129.839 71.06H133.969V81.2331C129.638 81.636 124.904 81.636 119.868 81.1323C114.832 80.6287 112.414 77.5063 112.515 71.5637V13.3458H119.465C122.99 13.3458 125.911 16.5689 125.911 20.0942V28.555H133.969V31.4759Z" fill="#000"/>
<path d="M180.562 28.555H190.936L172.101 81.8374H157.899L139.165 28.555H153.971L164.749 65.9232L174.015 33.2889C175.022 30.1665 177.238 28.555 180.562 28.555Z" fill="#000"/>
<path d="M213.318 71.9666C220.772 71.9666 225.304 67.5347 225.304 59.9805V55.0451C222.182 56.3545 218.556 57.4624 214.628 58.2682C209.289 59.2755 206.57 61.7935 206.57 65.7217C206.872 69.9521 209.088 71.9666 213.318 71.9666ZM216.441 38.728C211.707 38.728 209.088 39.9367 208.383 42.4547H194.987C196.598 32.5839 203.548 27.7492 215.836 27.7492C230.542 27.7492 237.995 32.5839 238.297 42.4547V60.5849C238.297 75.2904 229.434 81.8374 215.03 82.8446C202.239 83.8519 193.375 77.9092 193.375 66.1246C193.677 53.3328 202.944 49.9082 216.441 48.5988C222.182 47.8938 225.103 46.1815 225.103 43.2605C224.801 40.2388 221.98 38.728 216.441 38.728Z" fill="#000"/>
<path d="M297.732 35.4041C297.732 48.901 290.379 57.4624 276.681 57.4624H259.356V81.8374H245.356V20.6986C245.356 16.7704 248.478 13.3458 252.406 13.3458H275.673C290.178 13.3458 297.732 21.1015 297.732 35.4041ZM259.558 45.0735H273.155C280.206 45.1742 283.731 41.8504 283.731 35.2027C283.731 28.555 280.407 25.2311 273.86 25.2311H259.558V45.0735Z" fill="#000"/>
<path d="M304.587 81.8374V54.34C304.99 37.1164 314.156 28.555 331.984 28.555H333.898V42.4547H329.365C321.912 42.4547 318.185 46.3829 318.185 54.1386V81.8374H304.587Z" fill="#000"/>
<path d="M359.438 71.9666C366.891 71.9666 371.424 67.5347 371.424 59.9805V55.0451C368.301 56.3545 364.675 57.4624 360.747 58.2682C355.409 59.2755 352.689 61.7935 352.689 65.7217C352.992 69.9521 355.207 71.9666 359.438 71.9666ZM362.56 38.728C357.826 38.728 355.207 39.9367 354.502 42.4547H341.106C342.718 32.5839 349.668 27.7492 361.956 27.7492C376.661 27.7492 384.115 32.5839 384.417 42.4547V60.5849C384.417 75.2904 375.553 81.8374 361.15 82.8446C348.358 83.8519 339.495 77.9092 339.495 66.1246C339.797 53.3328 349.063 49.9082 362.56 48.5988C368.301 47.8938 371.222 46.1815 371.222 43.2605C370.92 40.2388 368.1 38.728 362.56 38.728Z" fill="#000"/>
<path d="M438.513 65.5203C436.096 76.3984 428.239 83.3482 415.85 83.0461C399.735 83.0461 391.476 73.7796 391.073 55.448C391.073 37.2171 399.231 28.0513 415.649 27.7492C428.542 27.7492 436.197 33.4904 438.513 45.0735H423.908C422.297 41.4475 419.477 39.5338 415.246 39.5338C408.196 39.5338 404.67 44.8721 404.67 55.448C404.67 66.0239 408.397 71.3622 415.85 71.2615C418.973 71.2615 421.692 69.9521 423.908 67.434C425.218 66.1246 426.729 65.5203 428.441 65.5203H438.513Z" fill="#000"/>
<path d="M467.636 31.4759C467.636 35.3034 464.715 38.1236 460.988 38.1236H459.578V67.6355C459.578 69.8514 460.888 71.06 463.507 71.06H467.636V81.2331C463.305 81.636 458.571 81.636 453.535 81.1323C448.499 80.6287 446.081 77.5063 446.182 71.5637V13.3458H453.132C456.657 13.3458 459.578 16.5689 459.578 20.0942V28.555H467.636V31.4759Z" fill="#000"/>
<path d="M475.806 13.3458H482.756C487.188 13.3458 489.303 15.5617 489.203 19.8928V23.821H475.806V13.3458ZM475.806 28.555H482.756C487.087 28.555 489.203 30.6701 489.203 35.0012V81.8374H475.806V28.555Z" fill="#000"/>
<path d="M544.403 65.5203C541.985 76.3984 534.129 83.3482 521.74 83.0461C505.624 83.0461 497.365 73.7796 496.962 55.448C496.962 37.2171 505.121 28.0513 521.539 27.7492C534.431 27.7492 542.086 33.4904 544.403 45.0735H529.798C528.186 41.4475 525.366 39.5338 521.136 39.5338C514.085 39.5338 510.56 44.8721 510.56 55.448C510.56 66.0239 514.287 71.3622 521.74 71.2615C524.862 71.2615 527.582 69.9521 529.798 67.434C531.107 66.1246 532.618 65.5203 534.33 65.5203H544.403Z" fill="#000"/>
<path d="M599.109 65.5203C596.188 76.8013 588.936 83.0461 575.842 83.0461C559.727 82.5425 551.669 73.1752 551.669 55.0451C551.669 36.915 559.827 27.8499 576.044 27.7492C592.965 27.7492 600.922 38.1236 599.915 58.9733H565.468C565.971 67.1318 569.497 71.2615 576.044 71.2615C579.166 71.2615 582.087 69.9521 584.706 67.434C585.915 66.1246 587.425 65.5203 589.238 65.5203H599.109ZM575.842 38.728C570.101 38.728 566.677 42.354 565.669 49.4046H585.713C584.907 42.354 581.584 38.728 575.842 38.728Z" fill="#000"/>

</svg>
