<svg width="600" height="146" viewBox="0 0 600 146" fill="none" xmlns="http://www.w3.org/2000/svg">
<path d="M87.3013 24.3029C87.2959 26.1905 87.2927 27.8843 87.2821 29.578C87.2813 29.7035 87.2945 30.0456 87.2945 30.1882C87.2945 30.2438 87.0165 30.1901 86.913 30.1882C79.4464 30.0492 73.0983 33.131 67.2394 37.3045C56.9737 44.6173 48.2316 53.3491 42.8685 64.987C41.6486 67.6342 40.773 70.44 39.8263 72.9419C30.4267 59.0302 16.9565 53.128 0.0812936 53.616C0.0812936 49.6178 -0.14415 45.4508 0.155823 41.322C0.377902 38.2654 4.45328 34.7748 7.90154 34.5022C17.5106 33.7426 26.5746 35.5597 34.5994 41.1292C37.0632 42.9022 39.4645 44.7649 42.3513 46.8242C42.3513 31.011 42.4273 15.5874 42.4273 0.00530242C45.0787 0.00530242 47.4628 0.00600665 49.8469 0.00509359C51.9968 0.00426421 54.1468 -0.00212031 56.2967 0.000726003C59.5602 0.00505158 61.3625 1.25079 61.8766 4.49156C62.3016 7.17094 62.2117 9.93521 62.3006 12.6635C62.3533 14.28 62.3142 15.9687 62.3142 17.9178C62.9961 17.5438 63.4873 17.2271 63.9387 16.9473C68.915 14.0499 74.0688 11.9375 79.7409 11.1089C84.436 10.4231 87.278 12.9177 87.3033 17.6594C87.3148 19.8091 87.3028 21.9591 87.3013 24.3029Z" fill="#000"/>
<path d="M51.5468 128.242C59.4177 138.235 69.9542 143.618 81.9959 144.974L85.9385 145.197C88.2811 145.33 90.6309 145.251 92.9595 144.962L95.9986 144.585V129.271H92.5537C84.8378 128.617 78.6409 126.259 72.7676 122.167C69.33 119.772 68.5008 118.907 66.5085 115.653C63.8079 111.247 63.2327 106.476 62.6877 86.7093C62.4124 76.6694 62.1714 65.6562 62.1485 62.2324C62.1083 56.3811 62.0395 56.0045 60.9495 56.0045C57.4271 56.0045 50.0151 68.0547 46.4009 79.6587C43.716 88.2735 42.9702 94.3101 43.3431 104.35C43.7447 115.155 45.6838 120.797 51.5468 128.242Z" fill="#000"/>
<path d="M106.76 102.511C117.076 102.511 123.349 96.3772 123.349 85.9216V79.0907C119.028 80.9029 114.009 82.4364 108.572 83.5517C101.184 84.9458 97.4196 88.431 97.4196 93.8679C97.8379 99.723 100.905 102.511 106.76 102.511ZM111.082 56.5066C104.529 56.5066 100.905 58.1795 99.929 61.6647H81.3877C83.6183 48.0027 93.2374 41.3112 110.245 41.3112C130.599 41.3112 140.915 48.0027 141.333 61.6647V86.7581C141.333 107.112 129.065 116.173 109.13 117.567C91.4251 118.961 79.1572 110.736 79.1572 94.4255C79.5754 76.7207 92.401 71.9809 111.082 70.1686C119.028 69.1927 123.071 66.8228 123.071 62.7799C122.652 58.5977 118.749 56.5066 111.082 56.5066Z" fill="#000"/>
<path d="M183.519 46.4692C183.519 51.7667 179.476 55.6701 174.318 55.6701H172.366V96.5166C172.366 99.5836 174.179 101.256 177.803 101.256H183.519V115.337C177.525 115.894 170.972 115.894 164.002 115.197C157.032 114.5 153.686 110.179 153.825 101.954V21.3759H163.444C168.324 21.3759 172.366 25.8369 172.366 30.7162V42.4264H183.519V46.4692Z" fill="#000"/>
<path d="M248.007 42.4264H262.366L236.297 116.173H216.64L190.71 42.4264H211.203L226.12 94.1467L238.946 48.9786C240.34 44.6569 243.407 42.4264 248.007 42.4264Z" fill="#000"/>
<path d="M293.344 102.511C303.66 102.511 309.933 96.3772 309.933 85.9216V79.0907C305.612 80.9029 300.593 82.4364 295.156 83.5517C287.768 84.9458 284.003 88.431 284.003 93.8679C284.422 99.723 287.489 102.511 293.344 102.511ZM297.665 56.5066C291.113 56.5066 287.489 58.1795 286.513 61.6647H267.972C270.202 48.0027 279.821 41.3112 296.829 41.3112C317.183 41.3112 327.499 48.0027 327.917 61.6647V86.7581C327.917 107.112 315.649 116.173 295.714 117.567C278.009 118.961 265.741 110.736 265.741 94.4255C266.159 76.7207 278.985 71.9809 297.665 70.1686C305.612 69.1927 309.655 66.8228 309.655 62.7799C309.236 58.5977 305.333 56.5066 297.665 56.5066Z" fill="#000"/>
<path d="M402.79 93.5891C399.444 108.645 388.57 118.264 371.423 117.846C349.118 117.846 337.686 105.02 337.129 79.6483C337.129 54.4155 348.421 41.7294 371.144 41.3112C388.988 41.3112 399.583 49.2574 402.79 65.2893H382.576C380.345 60.2706 376.442 57.6219 370.587 57.6219C360.828 57.6219 355.949 65.0105 355.949 79.6483C355.949 94.2861 361.107 101.675 371.423 101.535C375.745 101.535 379.509 99.723 382.576 96.2378C384.388 94.4255 386.479 93.5891 388.849 93.5891H402.79Z" fill="#000"/>
<path d="M439.334 102.511C449.65 102.511 455.924 96.3772 455.924 85.9216V79.0907C451.602 80.9029 446.583 82.4364 441.146 83.5517C433.758 84.9458 429.994 88.431 429.994 93.8679C430.412 99.723 433.479 102.511 439.334 102.511ZM443.656 56.5066C437.103 56.5066 433.479 58.1795 432.503 61.6647H413.962C416.192 48.0027 425.811 41.3112 442.819 41.3112C463.173 41.3112 473.489 48.0027 473.907 61.6647V86.7581C473.907 107.112 461.639 116.173 441.704 117.567C423.999 118.961 411.731 110.736 411.731 94.4255C412.15 76.7207 424.975 71.9809 443.656 70.1686C451.602 69.1927 455.645 66.8228 455.645 62.7799C455.226 58.5977 451.323 56.5066 443.656 56.5066Z" fill="#000"/>
<path d="M483.676 116.173V78.1148C484.234 54.2761 496.92 42.4264 521.595 42.4264H524.244V61.6647H517.971C507.655 61.6647 502.497 67.1016 502.497 77.836V116.173H483.676Z" fill="#000"/>
<path d="M598.767 93.5891C594.724 109.203 584.687 117.846 566.564 117.846C544.259 117.149 533.106 104.184 533.106 79.0907C533.106 53.9973 544.398 41.4506 566.843 41.3112C590.263 41.3112 601.277 55.6702 599.882 84.5276H552.205C552.902 95.8196 557.781 101.535 566.843 101.535C571.165 101.535 575.207 99.723 578.832 96.2378C580.505 94.4255 582.596 93.5891 585.105 93.5891H598.767ZM566.564 56.5066C558.618 56.5066 553.878 61.5253 552.484 71.2838H580.226C579.111 61.5253 574.51 56.5066 566.564 56.5066Z" fill="#000"/>

</svg>
