<svg width="2910" height="500" viewBox="0 0 2910 500" fill="none" xmlns="http://www.w3.org/2000/svg">
<path d="M209.782 192.751C213.529 192.752 213.77 194.053 213.908 214.184C213.987 225.98 214.815 263.882 215.762 298.426C217.638 366.446 219.628 382.86 228.921 398.022C235.778 409.223 238.62 412.214 250.451 420.456C270.665 434.54 292.002 442.64 318.557 444.892H349.95V499.937H324.953C312.458 499.938 303.843 500.174 295.782 499.718L282.21 498.937C240.768 494.271 204.501 475.745 177.413 441.351C157.239 415.734 150.552 396.316 149.17 359.136C147.886 324.584 150.477 303.806 159.716 274.161C172.155 234.223 197.659 192.751 209.782 192.751ZM2016.95 138.195C2079.35 138.195 2116.39 165.979 2127.6 222.034H2056.92C2049.13 204.486 2035.48 195.225 2015 195.225C1980.88 195.225 1963.82 221.059 1963.82 272.24C1963.82 323.421 1981.86 349.255 2017.93 348.768C2033.04 348.768 2046.2 342.431 2056.92 330.245C2063.26 323.908 2070.57 320.984 2078.86 320.984H2127.6C2115.9 373.627 2077.88 407.26 2017.93 405.798C1939.94 405.798 1899.97 360.954 1898.02 272.24C1898.02 184.014 1937.5 139.658 2016.95 138.195ZM2529.4 138.195C2591.79 138.195 2628.83 165.979 2640.04 222.034H2569.37C2561.57 204.486 2547.92 195.225 2527.45 195.225C2493.33 195.225 2476.27 221.059 2476.27 272.24C2476.27 323.421 2494.3 349.255 2530.37 348.768C2545.48 348.767 2558.64 342.431 2569.37 330.245C2575.7 323.909 2583.01 320.984 2591.3 320.984H2640.04C2628.35 373.627 2590.33 407.26 2530.37 405.798C2452.38 405.798 2412.41 360.954 2410.46 272.24C2410.46 184.014 2449.94 139.658 2529.4 138.195ZM2793.17 138.195C2875.06 138.195 2913.56 188.401 2908.69 289.301H2741.99C2744.42 328.783 2761.48 348.768 2793.17 348.768C2808.28 348.767 2822.41 342.431 2835.09 330.245C2840.94 323.908 2848.25 320.984 2857.02 320.984H2904.79C2890.66 375.577 2855.56 405.798 2792.19 405.798C2714.2 403.361 2675.21 358.029 2675.21 270.29C2675.21 182.551 2714.69 138.683 2793.17 138.195ZM397.594 138.195C468.76 138.195 504.83 161.592 506.293 209.36V297.1C506.293 368.265 463.399 399.949 393.695 404.823C331.791 409.698 288.896 380.938 288.896 323.908C290.359 262.004 335.203 245.431 400.519 239.095C428.303 235.683 442.439 227.395 442.439 213.26C440.977 198.637 427.328 191.325 400.519 191.325C377.61 191.325 364.936 197.175 361.524 209.36H296.695C304.494 161.592 338.127 138.195 397.594 138.195ZM1049.98 138.195C1121.15 138.195 1157.22 161.592 1158.68 209.36V297.1C1158.68 368.265 1115.79 399.949 1046.08 404.823C984.179 409.698 941.285 380.938 941.285 323.908C942.747 262.004 987.591 245.431 1052.91 239.095C1080.69 235.683 1094.83 227.395 1094.83 213.26C1093.36 198.637 1079.72 191.325 1052.91 191.325C1030 191.325 1017.33 197.175 1013.91 209.36H949.084C956.883 161.592 990.516 138.195 1049.98 138.195ZM1757.11 138.195C1828.28 138.195 1864.35 161.592 1865.81 209.36V297.1C1865.81 368.265 1822.92 399.949 1753.21 404.823C1691.31 409.698 1648.41 380.938 1648.41 323.908C1649.88 262.004 1694.72 245.431 1760.04 239.095C1787.82 235.683 1801.96 227.395 1801.96 213.26C1800.5 198.637 1786.85 191.325 1760.04 191.325C1737.13 191.325 1724.45 197.175 1721.04 209.36H1656.21C1664.01 161.592 1697.65 138.195 1757.11 138.195ZM802.75 322.934L847.594 165.004C852.469 149.893 863.192 142.095 879.277 142.095H929.483L838.333 399.949H769.604L678.94 142.095H750.594L802.75 322.934ZM1339.56 68.4911C1409.75 68.4911 1446.31 106.024 1446.31 175.24C1446.31 240.557 1410.72 281.989 1344.43 281.989H1260.59V399.949H1192.84V104.074C1192.84 85.0641 1207.95 68.4911 1226.96 68.4911H1339.56ZM1621.33 209.36H1599.39C1563.32 209.36 1545.29 228.371 1545.29 265.903V399.949H1479.48V266.878C1481.43 183.526 1525.79 142.095 1612.07 142.095H1621.33V209.36ZM2341.71 142.095C2362.67 142.095 2372.91 152.33 2372.91 173.29V399.949H2308.08V142.095H2341.71ZM583.605 68.4911C600.665 68.4912 614.801 84.0892 614.802 101.149V142.095H653.796V156.23C653.795 174.753 639.66 188.401 621.625 188.401H614.802V331.22C614.802 341.943 621.138 347.793 633.811 347.793H653.796V397.024C632.836 398.974 609.926 398.974 585.554 396.537C561.183 394.1 549.484 378.989 549.971 350.23V68.4911H583.605ZM2198.35 68.4911C2215.41 68.4914 2229.55 84.0893 2229.55 101.149V142.095H2268.54V156.23C2268.54 174.753 2254.4 188.401 2236.37 188.401H2229.55V331.22C2229.55 341.943 2235.88 347.793 2248.56 347.793H2268.54V397.024C2247.58 398.974 2224.67 398.974 2200.3 396.537C2175.93 394.1 2164.23 378.989 2164.72 350.23V68.4911H2198.35ZM443.414 270.29C428.303 276.627 410.756 281.989 391.746 285.889C365.912 290.763 352.751 302.949 352.751 321.959C354.213 342.431 364.937 352.18 385.409 352.18C421.479 352.18 443.414 330.732 443.414 294.175V270.29ZM1095.8 270.29C1080.69 276.627 1063.14 281.989 1044.13 285.889C1018.3 290.763 1005.14 302.949 1005.14 321.959C1006.6 342.431 1017.33 352.18 1037.8 352.18C1073.87 352.179 1095.8 330.732 1095.8 294.175V270.29ZM1802.93 270.29C1787.82 276.627 1770.27 281.989 1751.26 285.889C1725.43 290.763 1712.27 302.949 1712.27 321.959C1713.73 342.431 1724.46 352.18 1744.93 352.18C1781 352.179 1802.93 330.732 1802.93 294.175V270.29ZM193.768 0.00188855C204.991 0.0191457 211.185 4.31165 212.956 15.454C214.419 24.6756 214.115 34.2097 214.421 43.5995C214.601 49.1575 214.47 54.9639 214.469 61.664C216.811 60.3792 218.508 59.3052 220.059 58.3437C237.186 48.3717 254.925 41.0812 274.447 38.2294C290.606 35.8693 300.382 44.4658 300.469 60.7851C300.508 68.1837 300.474 75.5918 300.469 83.6581C300.45 90.148 300.432 95.9723 300.395 101.796C300.393 102.225 300.443 103.398 300.444 103.894C300.444 104.086 299.482 103.901 299.126 103.894C273.43 103.418 251.573 114.04 231.41 128.403C196.083 153.57 165.991 183.629 147.534 223.68C143.338 232.787 140.319 242.437 137.062 251.044C104.713 203.172 58.3607 182.871 0.287847 184.549C0.287847 170.788 -0.500436 156.43 0.531988 142.22C1.29949 131.703 15.3238 119.704 27.1882 118.761C60.2568 116.147 91.454 122.396 119.071 141.56C127.549 147.661 135.82 154.077 145.753 161.163C145.753 106.739 146.021 53.6547 146.021 0.0263026C155.144 0.0263027 163.351 0.0294414 171.554 0.0263026C178.954 0.0234482 186.369 -0.00790649 193.768 0.00188855ZM2792.19 191.325C2764.41 191.325 2747.84 208.874 2742.96 242.994H2839.96C2836.06 208.873 2819.98 191.325 2792.19 191.325ZM1261.57 222.034H1327.37C1361.49 222.522 1378.55 206.436 1378.55 174.266C1378.55 142.095 1362.47 126.009 1330.78 126.009H1261.57V222.034ZM2341.71 68.4911C2363.16 68.4912 2373.4 79.215 2372.91 100.175V119.185H2308.08V68.4911H2341.71Z" fill="url(#paint0_linear_2462_7921)"/>
<defs>
<linearGradient id="paint0_linear_2462_7921" x1="0" y1="249.999" x2="2909.1" y2="249.999" gradientUnits="userSpaceOnUse">
<stop stop-color="#5347D8"/>
<stop offset="1" stop-color="#9D2AF7"/>
</linearGradient>
</defs>
</svg>
