<svg width="310" height="51" viewBox="0 0 310 51" fill="none" xmlns="http://www.w3.org/2000/svg">
<path d="M7.20322e-05 5.25596C7.20322e-05 2.44796 2.23207 -3.95775e-05 5.04007 -3.95775e-05H38.9521V8.71196H24.4801V48.96H14.4721V8.71196H7.20322e-05V5.25596ZM73.4596 37.296C71.3716 45.36 66.1876 49.824 56.8276 49.824C45.3076 49.464 39.5476 42.768 39.5476 29.808C39.5476 16.848 45.3796 10.368 56.9716 10.296C69.0676 10.296 74.7556 17.712 74.0356 32.616H49.4116C49.7716 38.448 52.2916 41.4 56.9716 41.4C59.2036 41.4 61.2916 40.464 63.1636 38.664C64.0276 37.728 65.1076 37.296 66.4036 37.296H73.4596ZM56.8276 18.144C52.7236 18.144 50.2756 20.736 49.5556 25.776H63.8836C63.3076 20.736 60.9316 18.144 56.8276 18.144ZM87.68 36.432C87.896 40.608 90.92 42.048 95.6 42.048C99.632 42.048 101.648 40.896 101.648 38.448C101.648 36.504 98.336 34.92 91.784 33.768C83.36 32.256 79.04 28.512 78.968 22.536C78.968 14.328 85.448 10.44 94.16 10.296C99.056 10.296 102.944 11.376 105.824 13.536C108.632 15.768 110.144 18.864 110.36 22.824H104.312C102.08 22.752 100.64 21.96 100.064 20.448C99.416 18.792 97.472 17.856 94.304 17.856C90.56 17.856 88.688 18.864 88.688 20.808C88.688 22.752 91.136 24.264 96.104 25.2C102.584 26.496 106.832 28.152 108.92 30.096C110.72 31.968 111.584 34.272 111.584 36.864C111.584 46.224 104.24 49.68 94.16 49.68C88.832 49.68 84.8 48.528 82.208 46.296C79.328 44.136 77.888 40.824 77.888 36.432H87.68ZM124.914 36.432C125.13 40.608 128.154 42.048 132.834 42.048C136.866 42.048 138.882 40.896 138.882 38.448C138.882 36.504 135.57 34.92 129.018 33.768C120.594 32.256 116.274 28.512 116.202 22.536C116.202 14.328 122.682 10.44 131.394 10.296C136.29 10.296 140.178 11.376 143.058 13.536C145.866 15.768 147.378 18.864 147.594 22.824H141.546C139.314 22.752 137.874 21.96 137.298 20.448C136.65 18.792 134.706 17.856 131.538 17.856C127.794 17.856 125.922 18.864 125.922 20.808C125.922 22.752 128.37 24.264 133.338 25.2C139.818 26.496 144.066 28.152 146.154 30.096C147.954 31.968 148.818 34.272 148.818 36.864C148.818 46.224 141.474 49.68 131.394 49.68C126.066 49.68 122.034 48.528 119.442 46.296C116.562 44.136 115.122 40.824 115.122 36.432H124.914ZM187.06 37.296C184.972 45.36 179.788 49.824 170.428 49.824C158.908 49.464 153.148 42.768 153.148 29.808C153.148 16.848 158.98 10.368 170.572 10.296C182.668 10.296 188.356 17.712 187.636 32.616H163.012C163.372 38.448 165.892 41.4 170.572 41.4C172.804 41.4 174.892 40.464 176.764 38.664C177.628 37.728 178.708 37.296 180.004 37.296H187.06ZM170.428 18.144C166.324 18.144 163.876 20.736 163.156 25.776H177.484C176.908 20.736 174.532 18.144 170.428 18.144ZM192.568 48.96V29.304C192.856 16.992 199.408 10.872 212.152 10.872H213.52V20.808H210.28C204.952 20.808 202.288 23.616 202.288 29.16V48.96H192.568ZM231.804 41.904C237.132 41.904 240.372 38.736 240.372 33.336V29.808C238.14 30.744 235.548 31.536 232.74 32.112C228.924 32.832 226.98 34.632 226.98 37.44C227.196 40.464 228.78 41.904 231.804 41.904ZM234.036 18.144C230.652 18.144 228.78 19.008 228.276 20.808H218.7C219.852 13.752 224.82 10.296 233.604 10.296C244.116 10.296 249.444 13.752 249.66 20.808V33.768C249.66 44.28 243.324 48.96 233.028 49.68C223.884 50.4 217.548 46.152 217.548 37.728C217.764 28.584 224.388 26.136 234.036 25.2C238.14 24.696 240.228 23.472 240.228 21.384C240.012 19.224 237.996 18.144 234.036 18.144ZM288.356 37.296C286.628 45.072 281.012 50.04 272.156 49.824C260.636 49.824 254.732 43.2 254.444 30.096C254.444 17.064 260.276 10.512 272.012 10.296C281.228 10.296 286.7 14.4 288.356 22.68H277.916C276.764 20.088 274.748 18.72 271.724 18.72C266.684 18.72 264.164 22.536 264.164 30.096C264.164 37.656 266.828 41.472 272.156 41.4C274.388 41.4 276.332 40.464 277.916 38.664C278.852 37.728 279.932 37.296 281.156 37.296H288.356ZM309.2 12.96C309.2 15.696 307.112 17.712 304.448 17.712H303.44V38.808C303.44 40.392 304.376 41.256 306.248 41.256H309.2V48.528C306.104 48.816 302.72 48.816 299.12 48.456C295.52 48.096 293.792 45.864 293.864 41.616V-3.95775e-05H298.832C301.352 -3.95775e-05 303.44 2.30396 303.44 4.82396V10.872H309.2V12.96Z" fill="#191960"/>
</svg>
