<svg width="154" height="39" viewBox="0 0 154 39" fill="none" xmlns="http://www.w3.org/2000/svg">
<g clip-path="url(#clip0_4407_2292)">
<path d="M38 38H0V0H38V38ZM19.9287 16.2168C19.4676 16.217 18.4974 17.7948 18.0244 19.3135C17.6731 20.4408 17.5752 21.231 17.624 22.5449C17.6766 23.9589 17.9309 24.6976 18.6982 25.6719C19.7284 26.9798 21.1076 27.6839 22.6836 27.8613L23.1992 27.8906C23.5058 27.908 23.8135 27.8981 24.1182 27.8604L24.5166 27.8105V25.8066H24.0654C23.0556 25.721 22.2443 25.4125 21.4756 24.877C21.0257 24.5636 20.9169 24.4502 20.6562 24.0244C20.3028 23.4478 20.2276 22.8231 20.1562 20.2363C20.1202 18.9223 20.0889 17.4804 20.0859 17.0322C20.0807 16.2664 20.0714 16.2168 19.9287 16.2168ZM17.5049 8.8877C17.5049 10.9271 17.4951 12.946 17.4951 15.0156C17.1174 14.7462 16.8028 14.5025 16.4805 14.2705C15.4302 13.5416 14.243 13.3039 12.9854 13.4033C12.5341 13.4393 12.0007 13.896 11.9717 14.2959C11.9325 14.8361 11.9619 15.3812 11.9619 15.9043C14.1705 15.8404 15.9338 16.613 17.1641 18.4336C17.2879 18.1062 17.4029 17.7389 17.5625 17.3926C18.2645 15.8695 19.4084 14.7266 20.752 13.7695C21.5188 13.2233 22.3499 12.8197 23.3271 12.8379C23.3408 12.8382 23.377 12.8451 23.377 12.8379C23.3769 12.8192 23.3749 12.7754 23.375 12.7588C23.3764 12.5372 23.3772 12.3153 23.3779 12.0684C23.3781 11.7616 23.3794 11.4796 23.3779 11.1982C23.3745 10.5779 23.0028 10.2513 22.3887 10.3408C21.6463 10.4493 20.9716 10.7263 20.3203 11.1055C20.2612 11.1421 20.1967 11.1835 20.1074 11.2324C20.1074 10.9774 20.1123 10.7564 20.1055 10.5449C20.0938 10.1878 20.1054 9.82529 20.0498 9.47461C19.9825 9.05095 19.747 8.88838 19.3203 8.8877H17.5049Z" fill="url(#paint0_linear_4407_2292)"/>
</g>
<path d="M42.1682 4.79468C42.1682 3.78561 42.9703 2.90591 43.9794 2.90591H56.1659V6.03662H50.9653V20.5H47.3688V6.03662H42.1682V4.79468ZM68.5569 16.3085C67.8066 19.2063 65.9437 20.8105 62.5801 20.8105C58.4403 20.6811 56.3704 18.2749 56.3704 13.6176C56.3704 8.96035 58.4662 6.63172 62.6319 6.60584C66.9786 6.60584 69.0226 9.27083 68.7639 14.6267H59.9151C60.0445 16.7224 60.9501 17.7833 62.6319 17.7833C63.4339 17.7833 64.1843 17.4469 64.857 16.8001C65.1675 16.4637 65.5556 16.3085 66.0213 16.3085H68.5569ZM62.5801 9.42607C61.1053 9.42607 60.2256 10.3575 59.9669 12.1687H65.1157C64.9087 10.3575 64.0549 9.42607 62.5801 9.42607ZM73.6577 15.998C73.7353 17.4987 74.822 18.0161 76.5038 18.0161C77.9527 18.0161 78.6771 17.6021 78.6771 16.7224C78.6771 16.0239 77.487 15.4546 75.1325 15.0407C72.1052 14.4973 70.5528 13.1519 70.5269 11.0044C70.5269 8.05477 72.8556 6.65759 75.9863 6.60584C77.7457 6.60584 79.1429 6.99395 80.1778 7.77016C81.1869 8.57224 81.7302 9.68481 81.8079 11.1079H79.6345C78.8324 11.082 78.3149 10.7974 78.1079 10.254C77.8751 9.65893 77.1765 9.32258 76.038 9.32258C74.6926 9.32258 74.0199 9.68481 74.0199 10.3834C74.0199 11.082 74.8996 11.6253 76.6849 11.9617C79.0135 12.4274 80.5401 13.0225 81.2904 13.7211C81.9372 14.3938 82.2477 15.2218 82.2477 16.1532C82.2477 19.5168 79.6086 20.7587 75.9863 20.7587C74.0716 20.7587 72.6227 20.3448 71.6913 19.5427C70.6563 18.7665 70.1388 17.5763 70.1388 15.998H73.6577ZM87.0285 15.998C87.1061 17.4987 88.1928 18.0161 89.8746 18.0161C91.3235 18.0161 92.048 17.6021 92.048 16.7224C92.048 16.0239 90.8578 15.4546 88.5033 15.0407C85.476 14.4973 83.9236 13.1519 83.8977 11.0044C83.8977 8.05477 86.2264 6.65759 89.3571 6.60584C91.1165 6.60584 92.5137 6.99395 93.5486 7.77016C94.5577 8.57224 95.101 9.68481 95.1787 11.1079H93.0053C92.2032 11.082 91.6857 10.7974 91.4787 10.254C91.2459 9.65893 90.5473 9.32258 89.4088 9.32258C88.0634 9.32258 87.3907 9.68481 87.3907 10.3834C87.3907 11.082 88.2704 11.6253 90.0557 11.9617C92.3843 12.4274 93.9109 13.0225 94.6612 13.7211C95.308 14.3938 95.6185 15.2218 95.6185 16.1532C95.6185 19.5168 92.9794 20.7587 89.3571 20.7587C87.4424 20.7587 85.9935 20.3448 85.0621 19.5427C84.0271 18.7665 83.5096 17.5763 83.5096 15.998H87.0285ZM109.352 16.3085C108.601 19.2063 106.738 20.8105 103.375 20.8105C99.235 20.6811 97.1651 18.2749 97.1651 13.6176C97.1651 8.96035 99.2608 6.63172 103.426 6.60584C107.773 6.60584 109.817 9.27083 109.559 14.6267H100.71C100.839 16.7224 101.745 17.7833 103.426 17.7833C104.229 17.7833 104.979 17.4469 105.652 16.8001C105.962 16.4637 106.35 16.3085 106.816 16.3085H109.352ZM103.375 9.42607C101.9 9.42607 101.02 10.3575 100.761 12.1687H105.91C105.703 10.3575 104.85 9.42607 103.375 9.42607ZM111.322 20.5V13.4365C111.425 9.01209 113.78 6.81283 118.359 6.81283H118.851V10.3834H117.686C115.772 10.3834 114.815 11.3925 114.815 13.3847V20.5H111.322ZM125.412 17.9644C127.326 17.9644 128.491 16.8259 128.491 14.8854V13.6176C127.688 13.954 126.757 14.2386 125.748 14.4456C124.377 14.7043 123.678 15.3511 123.678 16.3602C123.756 17.4469 124.325 17.9644 125.412 17.9644ZM126.214 9.42607C124.998 9.42607 124.325 9.73656 124.144 10.3834H120.703C121.117 7.84778 122.902 6.60584 126.058 6.60584C129.836 6.60584 131.751 7.84778 131.828 10.3834V15.0407C131.828 18.8182 129.551 20.5 125.851 20.7587C122.565 21.0175 120.289 19.4909 120.289 16.4637C120.366 13.1778 122.747 12.298 126.214 11.9617C127.688 11.7806 128.439 11.3407 128.439 10.5904C128.361 9.81418 127.637 9.42607 126.214 9.42607ZM145.724 16.3085C145.103 19.1028 143.085 20.8881 139.903 20.8105C135.763 20.8105 133.641 18.4301 133.538 13.7211C133.538 9.03797 135.634 6.68346 139.851 6.60584C143.163 6.60584 145.129 8.08064 145.724 11.0561H141.973C141.559 10.1247 140.834 9.63306 139.748 9.63306C137.936 9.63306 137.031 11.0044 137.031 13.7211C137.031 16.4378 137.988 17.8091 139.903 17.7833C140.705 17.7833 141.404 17.4469 141.973 16.8001C142.309 16.4637 142.697 16.3085 143.137 16.3085H145.724ZM153.206 7.56317C153.206 8.54637 152.455 9.27083 151.498 9.27083H151.136V16.8518C151.136 17.421 151.472 17.7315 152.145 17.7315H153.206V20.3448C152.093 20.4483 150.877 20.4483 149.583 20.3189C148.29 20.1895 147.669 19.3874 147.694 17.8609V2.90591H149.48C150.385 2.90591 151.136 3.73387 151.136 4.63944V6.81283H153.206V7.56317Z" fill="url(#paint1_linear_4407_2292)"/>
<path d="M50.2233 35.5H47.5301V26.7727H50.3426C51.1892 26.7727 51.9137 26.9474 52.5159 27.2969C53.1182 27.6435 53.5799 28.142 53.9009 28.7926C54.2219 29.4403 54.3824 30.2159 54.3824 31.1193C54.3824 32.0284 54.2205 32.8111 53.8966 33.4673C53.5728 34.1207 53.1012 34.6236 52.4819 34.9759C51.8625 35.3253 51.1097 35.5 50.2233 35.5ZM48.587 34.5625H50.1551C50.8767 34.5625 51.4747 34.4233 51.9492 34.1449C52.4236 33.8665 52.7773 33.4702 53.0103 32.956C53.2432 32.4418 53.3597 31.8295 53.3597 31.1193C53.3597 30.4148 53.2446 29.8082 53.0145 29.2997C52.7844 28.7884 52.4407 28.3963 51.9833 28.1236C51.5259 27.848 50.9563 27.7102 50.2745 27.7102H48.587V34.5625ZM58.8727 35.6364C58.242 35.6364 57.698 35.4972 57.2406 35.2188C56.786 34.9375 56.4352 34.5455 56.188 34.0426C55.9437 33.5369 55.8216 32.9489 55.8216 32.2784C55.8216 31.608 55.9437 31.017 56.188 30.5057C56.4352 29.9915 56.7789 29.5909 57.2193 29.304C57.6625 29.0142 58.1795 28.8693 58.7704 28.8693C59.1113 28.8693 59.448 28.9261 59.7804 29.0398C60.1127 29.1534 60.4153 29.3381 60.688 29.5938C60.9608 29.8466 61.1781 30.1818 61.34 30.5994C61.502 31.017 61.5829 31.5312 61.5829 32.142V32.5682H56.5375V31.6989H60.5602C60.5602 31.3295 60.4863 31 60.3386 30.7102C60.1937 30.4205 59.9863 30.1918 59.7164 30.0241C59.4494 29.8565 59.1341 29.7727 58.7704 29.7727C58.3698 29.7727 58.0233 29.8722 57.7306 30.071C57.4409 30.267 57.2179 30.5227 57.0616 30.8381C56.9054 31.1534 56.8272 31.4915 56.8272 31.8523V32.4318C56.8272 32.9261 56.9125 33.3452 57.0829 33.6889C57.2562 34.0298 57.4963 34.2898 57.8031 34.4688C58.1099 34.6449 58.4664 34.733 58.8727 34.733C59.1369 34.733 59.3755 34.696 59.5886 34.6222C59.8045 34.5455 59.9906 34.4318 60.1468 34.2812C60.3031 34.1278 60.4238 33.9375 60.5091 33.7102L61.4806 33.983C61.3784 34.3125 61.2065 34.6023 60.965 34.8523C60.7235 35.0994 60.4252 35.2926 60.0701 35.4318C59.715 35.5682 59.3159 35.6364 58.8727 35.6364ZM67.8587 30.4205L66.9553 30.6761C66.8985 30.5256 66.8147 30.3793 66.7039 30.2372C66.5959 30.0923 66.4482 29.973 66.2607 29.8793C66.0732 29.7855 65.8331 29.7386 65.5405 29.7386C65.1399 29.7386 64.8061 29.831 64.5391 30.0156C64.2749 30.1974 64.1428 30.429 64.1428 30.7102C64.1428 30.9602 64.2337 31.1577 64.4155 31.3026C64.5973 31.4474 64.8814 31.5682 65.2678 31.6648L66.2394 31.9034C66.8246 32.0455 67.2607 32.2628 67.5476 32.5554C67.8346 32.8452 67.978 33.2187 67.978 33.6761C67.978 34.0511 67.8701 34.3864 67.6542 34.6818C67.4411 34.9773 67.1428 35.2102 66.7593 35.3807C66.3757 35.5511 65.9297 35.6364 65.4212 35.6364C64.7536 35.6364 64.201 35.4915 63.7635 35.2017C63.326 34.9119 63.049 34.4886 62.9326 33.9318L63.8871 33.6932C63.978 34.0455 64.1499 34.3097 64.4027 34.4858C64.6584 34.6619 64.9922 34.75 65.4042 34.75C65.8729 34.75 66.2451 34.6506 66.5206 34.4517C66.799 34.25 66.9382 34.0085 66.9382 33.7273C66.9382 33.5 66.8587 33.3097 66.6996 33.1562C66.5405 33 66.2962 32.8835 65.9667 32.8068L64.8757 32.5511C64.2763 32.4091 63.836 32.1889 63.5547 31.8906C63.2763 31.5895 63.1371 31.2131 63.1371 30.7614C63.1371 30.392 63.2408 30.0653 63.4482 29.7812C63.6584 29.4972 63.9439 29.2741 64.3047 29.1122C64.6684 28.9503 65.0803 28.8693 65.5405 28.8693C66.1882 28.8693 66.6968 29.0114 67.0661 29.2955C67.4382 29.5795 67.7024 29.9545 67.8587 30.4205ZM69.6015 35.5V28.9545H70.6071V35.5H69.6015ZM70.1128 27.8636C69.9168 27.8636 69.7478 27.7969 69.6057 27.6634C69.4665 27.5298 69.3969 27.3693 69.3969 27.1818C69.3969 26.9943 69.4665 26.8338 69.6057 26.7003C69.7478 26.5668 69.9168 26.5 70.1128 26.5C70.3088 26.5 70.4765 26.5668 70.6157 26.7003C70.7577 26.8338 70.8287 26.9943 70.8287 27.1818C70.8287 27.3693 70.7577 27.5298 70.6157 27.6634C70.4765 27.7969 70.3088 27.8636 70.1128 27.8636ZM75.2007 38.0909C74.7149 38.0909 74.2973 38.0284 73.9479 37.9034C73.5985 37.7812 73.3073 37.6193 73.0743 37.4176C72.8442 37.2188 72.661 37.0057 72.5246 36.7784L73.3257 36.2159C73.4167 36.3352 73.5317 36.4716 73.6709 36.625C73.8101 36.7812 74.0005 36.9162 74.2419 37.0298C74.4863 37.1463 74.8059 37.2045 75.2007 37.2045C75.7292 37.2045 76.1652 37.0767 76.509 36.821C76.8527 36.5653 77.0246 36.1648 77.0246 35.6193V34.2898H76.9394C76.8655 34.4091 76.7604 34.5568 76.624 34.733C76.4905 34.9062 76.2973 35.0611 76.0445 35.1974C75.7945 35.331 75.4564 35.3977 75.0303 35.3977C74.5019 35.3977 74.0274 35.2727 73.607 35.0227C73.1894 34.7727 72.8584 34.4091 72.6141 33.9318C72.3726 33.4545 72.2519 32.875 72.2519 32.1932C72.2519 31.5227 72.3698 30.9389 72.6056 30.4418C72.8414 29.9418 73.1695 29.5554 73.5899 29.2827C74.0104 29.0071 74.4962 28.8693 75.0473 28.8693C75.4735 28.8693 75.8115 28.9403 76.0615 29.0824C76.3144 29.2216 76.5076 29.3807 76.6411 29.5597C76.7774 29.7358 76.8826 29.8807 76.9564 29.9943H77.0587V28.9545H78.0303V35.6875C78.0303 36.25 77.9024 36.7074 77.6468 37.0597C77.3939 37.4148 77.053 37.6747 76.624 37.8395C76.1979 38.0071 75.7235 38.0909 75.2007 38.0909ZM75.1667 34.4943C75.5701 34.4943 75.911 34.402 76.1894 34.2173C76.4678 34.0327 76.6794 33.767 76.8243 33.4205C76.9692 33.0739 77.0417 32.6591 77.0417 32.1761C77.0417 31.7045 76.9706 31.2884 76.8286 30.9276C76.6865 30.5668 76.4763 30.2841 76.1979 30.0795C75.9195 29.875 75.5757 29.7727 75.1667 29.7727C74.7405 29.7727 74.3854 29.8807 74.1013 30.0966C73.8201 30.3125 73.6084 30.6023 73.4664 30.9659C73.3272 31.3295 73.2576 31.733 73.2576 32.1761C73.2576 32.6307 73.3286 33.0327 73.4706 33.3821C73.6155 33.7287 73.8286 34.0014 74.1098 34.2003C74.3939 34.3963 74.7462 34.4943 75.1667 34.4943ZM80.9865 31.5625V35.5H79.9808V28.9545H80.9524V29.9773H81.0376C81.191 29.6449 81.424 29.3778 81.7365 29.1761C82.049 28.9716 82.4524 28.8693 82.9467 28.8693C83.3899 28.8693 83.7777 28.9602 84.11 29.142C84.4424 29.321 84.701 29.5938 84.8856 29.9602C85.0703 30.3239 85.1626 30.7841 85.1626 31.3409V35.5H84.1569V31.4091C84.1569 30.8949 84.0234 30.4943 83.7564 30.2074C83.4893 29.9176 83.1228 29.7727 82.6569 29.7727C82.3359 29.7727 82.049 29.8423 81.7961 29.9815C81.5461 30.1207 81.3487 30.3239 81.2038 30.5909C81.0589 30.858 80.9865 31.1818 80.9865 31.5625ZM95.5036 28.9545C95.4525 28.5227 95.2451 28.1875 94.8814 27.9489C94.5178 27.7102 94.0718 27.5909 93.5434 27.5909C93.157 27.5909 92.8189 27.6534 92.5292 27.7784C92.2422 27.9034 92.0178 28.0753 91.8559 28.294C91.6968 28.5128 91.6172 28.7614 91.6172 29.0398C91.6172 29.2727 91.6726 29.473 91.7834 29.6406C91.8971 29.8054 92.0419 29.9432 92.2181 30.054C92.3942 30.1619 92.5789 30.2514 92.7721 30.3224C92.9652 30.3906 93.1428 30.446 93.3047 30.4886L94.1911 30.7273C94.4184 30.7869 94.6712 30.8693 94.9496 30.9744C95.2309 31.0795 95.4993 31.223 95.755 31.4048C96.0135 31.5838 96.2266 31.8139 96.3942 32.0952C96.5618 32.3764 96.6456 32.7216 96.6456 33.1307C96.6456 33.6023 96.5221 34.0284 96.2749 34.4091C96.0306 34.7898 95.6726 35.0923 95.201 35.3168C94.7323 35.5412 94.1627 35.6534 93.4922 35.6534C92.8672 35.6534 92.326 35.5526 91.8686 35.3509C91.4141 35.1491 91.0561 34.8679 90.7948 34.5071C90.5363 34.1463 90.39 33.7273 90.3559 33.25H91.4468C91.4752 33.5795 91.586 33.8523 91.7792 34.0682C91.9752 34.2812 92.2223 34.4403 92.5206 34.5455C92.8218 34.6477 93.1456 34.6989 93.4922 34.6989C93.8956 34.6989 94.2578 34.6335 94.5789 34.5028C94.8999 34.3693 95.1542 34.1847 95.3417 33.9489C95.5292 33.7102 95.6229 33.4318 95.6229 33.1136C95.6229 32.8239 95.5419 32.5881 95.38 32.4062C95.2181 32.2244 95.005 32.0767 94.7408 31.9631C94.4766 31.8494 94.1911 31.75 93.8843 31.6648L92.8104 31.358C92.1286 31.1619 91.5888 30.8821 91.1911 30.5185C90.7934 30.1548 90.5945 29.679 90.5945 29.0909C90.5945 28.6023 90.7266 28.1761 90.9908 27.8125C91.2578 27.446 91.6158 27.1619 92.0647 26.9602C92.5164 26.7557 93.0206 26.6534 93.5775 26.6534C94.14 26.6534 94.64 26.7543 95.0775 26.956C95.515 27.1548 95.8615 27.4276 96.1172 27.7741C96.3757 28.1207 96.5121 28.5142 96.5263 28.9545H95.5036ZM99.0042 37.9545C98.8337 37.9545 98.6817 37.9403 98.5482 37.9119C98.4147 37.8864 98.3223 37.8608 98.2712 37.8352L98.5269 36.9489C98.7712 37.0114 98.9871 37.0341 99.1746 37.017C99.3621 37 99.5283 36.9162 99.6732 36.7656C99.8209 36.6179 99.9559 36.3778 100.078 36.0455L100.266 35.5341L97.8451 28.9545H98.936L100.743 34.1705H100.811L102.618 28.9545H103.709L100.93 36.4545C100.805 36.7926 100.65 37.0724 100.466 37.294C100.281 37.5185 100.067 37.6847 99.8223 37.7926C99.5809 37.9006 99.3081 37.9545 99.0042 37.9545ZM109.782 30.4205L108.879 30.6761C108.822 30.5256 108.738 30.3793 108.627 30.2372C108.519 30.0923 108.372 29.973 108.184 29.8793C107.997 29.7855 107.757 29.7386 107.464 29.7386C107.063 29.7386 106.73 29.831 106.462 30.0156C106.198 30.1974 106.066 30.429 106.066 30.7102C106.066 30.9602 106.157 31.1577 106.339 31.3026C106.521 31.4474 106.805 31.5682 107.191 31.6648L108.163 31.9034C108.748 32.0455 109.184 32.2628 109.471 32.5554C109.758 32.8452 109.901 33.2187 109.901 33.6761C109.901 34.0511 109.793 34.3864 109.578 34.6818C109.364 34.9773 109.066 35.2102 108.683 35.3807C108.299 35.5511 107.853 35.6364 107.345 35.6364C106.677 35.6364 106.124 35.4915 105.687 35.2017C105.249 34.9119 104.972 34.4886 104.856 33.9318L105.81 33.6932C105.901 34.0455 106.073 34.3097 106.326 34.4858C106.582 34.6619 106.916 34.75 107.328 34.75C107.796 34.75 108.168 34.6506 108.444 34.4517C108.722 34.25 108.862 34.0085 108.862 33.7273C108.862 33.5 108.782 33.3097 108.623 33.1562C108.464 33 108.22 32.8835 107.89 32.8068L106.799 32.5511C106.2 32.4091 105.759 32.1889 105.478 31.8906C105.2 31.5895 105.06 31.2131 105.06 30.7614C105.06 30.392 105.164 30.0653 105.372 29.7812C105.582 29.4972 105.867 29.2741 106.228 29.1122C106.592 28.9503 107.004 28.8693 107.464 28.8693C108.112 28.8693 108.62 29.0114 108.989 29.2955C109.362 29.5795 109.626 29.9545 109.782 30.4205ZM114.371 28.9545V29.8068H110.979V28.9545H114.371ZM111.968 27.3864H112.974V33.625C112.974 33.9091 113.015 34.1222 113.097 34.2642C113.182 34.4034 113.29 34.4972 113.421 34.5455C113.555 34.5909 113.695 34.6136 113.843 34.6136C113.954 34.6136 114.045 34.608 114.116 34.5966C114.187 34.5824 114.244 34.571 114.286 34.5625L114.491 35.4659C114.423 35.4915 114.327 35.517 114.205 35.5426C114.083 35.571 113.928 35.5852 113.741 35.5852C113.457 35.5852 113.178 35.5241 112.906 35.402C112.636 35.2798 112.411 35.0938 112.232 34.8438C112.056 34.5938 111.968 34.2784 111.968 33.8977V27.3864ZM118.668 35.6364C118.037 35.6364 117.493 35.4972 117.036 35.2188C116.581 34.9375 116.23 34.5455 115.983 34.0426C115.739 33.5369 115.617 32.9489 115.617 32.2784C115.617 31.608 115.739 31.017 115.983 30.5057C116.23 29.9915 116.574 29.5909 117.014 29.304C117.458 29.0142 117.975 28.8693 118.566 28.8693C118.906 28.8693 119.243 28.9261 119.575 29.0398C119.908 29.1534 120.21 29.3381 120.483 29.5938C120.756 29.8466 120.973 30.1818 121.135 30.5994C121.297 31.017 121.378 31.5312 121.378 32.142V32.5682H116.333V31.6989H120.355C120.355 31.3295 120.281 31 120.134 30.7102C119.989 30.4205 119.781 30.1918 119.512 30.0241C119.244 29.8565 118.929 29.7727 118.566 29.7727C118.165 29.7727 117.818 29.8722 117.526 30.071C117.236 30.267 117.013 30.5227 116.857 30.8381C116.7 31.1534 116.622 31.4915 116.622 31.8523V32.4318C116.622 32.9261 116.708 33.3452 116.878 33.6889C117.051 34.0298 117.291 34.2898 117.598 34.4688C117.905 34.6449 118.262 34.733 118.668 34.733C118.932 34.733 119.171 34.696 119.384 34.6222C119.6 34.5455 119.786 34.4318 119.942 34.2812C120.098 34.1278 120.219 33.9375 120.304 33.7102L121.276 33.983C121.173 34.3125 121.002 34.6023 120.76 34.8523C120.519 35.0994 120.22 35.2926 119.865 35.4318C119.51 35.5682 119.111 35.6364 118.668 35.6364ZM123.017 35.5V28.9545H123.989V29.9773H124.074C124.211 29.6278 124.431 29.3565 124.735 29.1634C125.039 28.9673 125.404 28.8693 125.83 28.8693C126.262 28.8693 126.621 28.9673 126.908 29.1634C127.198 29.3565 127.424 29.6278 127.586 29.9773H127.654C127.821 29.6392 128.073 29.3707 128.408 29.1719C128.743 28.9702 129.145 28.8693 129.614 28.8693C130.199 28.8693 130.678 29.0526 131.05 29.419C131.422 29.7827 131.608 30.3494 131.608 31.1193V35.5H130.603V31.1193C130.603 30.6364 130.471 30.2912 130.206 30.0838C129.942 29.8764 129.631 29.7727 129.273 29.7727C128.813 29.7727 128.456 29.9119 128.204 30.1903C127.951 30.4659 127.824 30.8153 127.824 31.2386V35.5H126.802V31.017C126.802 30.6449 126.681 30.3452 126.439 30.1179C126.198 29.8878 125.887 29.7727 125.506 29.7727C125.245 29.7727 125 29.8423 124.773 29.9815C124.549 30.1207 124.367 30.3139 124.228 30.5611C124.091 30.8054 124.023 31.0881 124.023 31.4091V35.5H123.017Z" fill="url(#paint2_linear_4407_2292)"/>
<defs>
<linearGradient id="paint0_linear_4407_2292" x1="2" y1="36" x2="43.5" y2="-3" gradientUnits="userSpaceOnUse">
<stop/>
<stop offset="1" stop-color="#666666"/>
</linearGradient>
<linearGradient id="paint1_linear_4407_2292" x1="41" y1="24" x2="164" y2="12.5" gradientUnits="userSpaceOnUse">
<stop/>
<stop offset="1" stop-color="#666666"/>
</linearGradient>
<linearGradient id="paint2_linear_4407_2292" x1="44.5" y1="35" x2="134.5" y2="35" gradientUnits="userSpaceOnUse">
<stop/>
<stop offset="1" stop-color="#666666"/>
</linearGradient>
<clipPath id="clip0_4407_2292">
<rect width="38" height="38" rx="8.68571" fill="white"/>
</clipPath>
</defs>
</svg>
