<svg width="126" height="126" viewBox="0 0 126 126" fill="none" xmlns="http://www.w3.org/2000/svg">
<g clip-path="url(#clip0_4407_2315)">
<path d="M126 126H0V0H126V126ZM66.0801 53.7725C64.5514 53.7725 61.3341 59.0022 59.7656 64.0381C58.6006 67.7764 58.2767 70.3962 58.4385 74.7529C58.6128 79.4419 59.4546 81.8913 61.999 85.1221C65.4148 89.4589 69.9873 91.7954 75.2129 92.3838L76.9248 92.4805C77.9413 92.5379 78.9613 92.5032 79.9717 92.3779L81.29 92.2148V85.5684H79.7949C76.4465 85.2845 73.7568 84.2612 71.208 82.4854C69.7165 81.4463 69.3567 81.0704 68.4922 79.6582C67.3203 77.7463 67.0705 75.6757 66.834 67.0977C66.7145 62.7409 66.6096 57.9619 66.5996 56.4756C66.5822 53.937 66.5527 53.7726 66.0801 53.7725ZM61.2617 29.4697C60.2271 29.4701 59.1917 29.4697 58.041 29.4697C58.041 36.2319 58.0088 42.9256 58.0088 49.7881C56.7561 48.8945 55.7136 48.0867 54.6445 47.3174C51.1619 44.9003 47.2278 44.1118 43.0576 44.4414C41.5613 44.5599 39.7928 46.074 39.6963 47.4004C39.5661 49.1922 39.6641 51.0012 39.6641 52.7363C46.9875 52.5246 52.8339 55.0857 56.9131 61.123C57.3239 60.0374 57.7031 58.8196 58.2324 57.6709C60.5599 52.6203 64.3545 48.8308 68.8096 45.6572C71.3522 43.846 74.1073 42.508 77.3477 42.5684C77.3929 42.5693 77.5127 42.5924 77.5127 42.5684C77.5127 42.5062 77.5075 42.358 77.5078 42.3037C77.5124 41.5688 77.5133 40.8338 77.5156 40.0146C77.5163 38.9976 77.5216 38.0647 77.5166 37.1318C77.5056 35.074 76.2719 33.9914 74.2344 34.2891C71.773 34.6487 69.5364 35.565 67.377 36.8223C67.181 36.9437 66.9678 37.0818 66.6719 37.2441C66.6719 36.3984 66.6889 35.6653 66.666 34.9639C66.6274 33.7799 66.6669 32.5798 66.4824 31.417C66.2593 30.0106 65.4768 29.4697 64.0605 29.4678C63.1276 29.4665 62.1946 29.4694 61.2617 29.4697Z" fill="url(#paint0_linear_4407_2315)"/>
</g>
<defs>
<linearGradient id="paint0_linear_4407_2315" x1="135.587" y1="-10.1957" x2="1.38992" y2="126" gradientUnits="userSpaceOnUse">
<stop stop-color="#4B4AD5"/>
<stop offset="1" stop-color="#10104B"/>
</linearGradient>
<clipPath id="clip0_4407_2315">
<rect width="126" height="126" rx="28" fill="white"/>
</clipPath>
</defs>
</svg>
