<svg xmlns="http://www.w3.org/2000/svg" viewBox="0 0 112 112">
  <style>
    /* Adapt to the browser/tab background: near-black on light, white on dark. */
    path { fill: #171725; }
    @media (prefers-color-scheme: dark) { path { fill: #ffffff; } }
  </style>
  <g transform="translate(23.25 9) scale(0.84)">
    <path d="M46.7582 42.962C47.5934 42.9622 47.6469 43.2522 47.6777 47.7391C47.6954 50.3683 47.88 58.8162 48.0912 66.5157C48.5093 81.6768 48.9526 85.3353 51.0239 88.7147C52.5522 91.2112 53.1857 91.8779 55.8228 93.7149C60.3282 96.854 65.084 98.6595 71.003 99.1613H78V111.431H72.4285C69.6436 111.431 67.7233 111.483 65.9266 111.382L62.9014 111.208C53.6645 110.167 45.5812 106.038 39.5435 98.3724C35.0469 92.6625 33.5565 88.3344 33.2484 80.0473C32.9623 72.3462 33.5397 67.7151 35.5989 61.1075C38.3714 52.2057 44.0561 42.962 46.7582 42.962Z" />
    <path d="M43.1889 0.000421048C45.6903 0.00426749 47.0708 0.961014 47.4655 3.44453C47.7915 5.49994 47.7238 7.625 47.792 9.71792C47.8323 10.9567 47.8029 12.2508 47.8029 13.7442C48.3249 13.4578 48.7031 13.2186 49.0488 13.0042C52.8662 10.7816 56.82 9.15654 61.1712 8.52091C64.7728 7.99484 66.9519 9.91092 66.9712 13.5483C66.98 15.1974 66.9724 16.8486 66.9712 18.6465C66.9672 20.093 66.9631 21.3911 66.9549 22.6891C66.9543 22.7847 66.9657 23.0463 66.9658 23.157C66.9658 23.1996 66.7514 23.1585 66.672 23.157C60.9448 23.0508 56.073 25.4183 51.5789 28.6197C43.7048 34.2291 36.9976 40.9288 32.8838 49.8556C31.9486 51.8855 31.2756 54.0364 30.5497 55.9549C23.3394 45.2849 13.008 40.7598 0.0641625 41.1338C0.0641625 38.0668 -0.111544 34.8666 0.118572 31.6993C0.289579 29.3552 3.41557 26.6808 6.06006 26.4705C13.4307 25.8879 20.3842 27.2808 26.5397 31.5524C28.4293 32.9122 30.2728 34.3421 32.4866 35.9214C32.4866 23.791 32.5465 11.959 32.5465 0.00586198C34.5799 0.00586198 36.4093 0.00656161 38.2377 0.00586198C39.887 0.00522574 41.5397 -0.00176241 43.1889 0.000421048Z" />
  </g>
</svg>
